<svg
            class="w-10 h-10"
            viewBox="0 0 53 52"
            xmlns="http://www.w3.org/2000/svg"
          >
            <path
              d="M17.4023 41.7266C17.4023 41.5156 17.1914 41.3047 16.875 41.3047C16.5586 41.3047 16.3477 41.5156 16.3477 41.7266C16.3477 41.9375 16.5586 42.1484 16.875 42.043C17.1914 42.043 17.4023 41.9375 17.4023 41.7266ZM14.1328 41.1992C14.1328 41.4102 14.3438 41.7266 14.6602 41.7266C14.8711 41.832 15.1875 41.7266 15.293 41.5156C15.293 41.3047 15.1875 41.0938 14.8711 40.9883C14.5547 40.8828 14.2383 40.9883 14.1328 41.1992ZM18.8789 41.0938C18.5625 41.0938 18.3516 41.3047 18.3516 41.6211C18.3516 41.832 18.668 41.9375 18.9844 41.832C19.3008 41.7266 19.5117 41.6211 19.4062 41.4102C19.4062 41.1992 19.0898 40.9883 18.8789 41.0938ZM25.7344 0.59375C11.1797 0.59375 0 11.7734 0 26.3281C0 38.0352 7.27734 48.0547 17.8242 51.6406C19.1953 51.8516 19.6172 51.0078 19.6172 50.375C19.6172 49.6367 19.6172 46.0508 19.6172 43.8359C19.6172 43.8359 12.2344 45.418 10.6523 40.6719C10.6523 40.6719 9.49219 37.6133 7.80469 36.875C7.80469 36.875 5.37891 35.1875 7.91016 35.1875C7.91016 35.1875 10.5469 35.3984 12.0234 37.9297C14.3438 42.043 18.1406 40.8828 19.7227 40.1445C19.9336 38.457 20.5664 37.2969 21.4102 36.5586C15.5039 35.9258 9.49219 35.082 9.49219 24.957C9.49219 22.0039 10.3359 20.6328 12.0234 18.7344C11.707 17.9961 10.8633 15.2539 12.3398 11.5625C14.4492 10.9297 19.6172 14.4102 19.6172 14.4102C21.7266 13.7773 23.9414 13.5664 26.1562 13.5664C28.4766 13.5664 30.6914 13.7773 32.8008 14.4102C32.8008 14.4102 37.8633 10.8242 40.0781 11.5625C41.5547 15.2539 40.6055 17.9961 40.3945 18.7344C42.082 20.6328 43.1367 22.0039 43.1367 24.957C43.1367 35.082 36.9141 35.9258 31.0078 36.5586C31.957 37.4023 32.8008 38.9844 32.8008 41.5156C32.8008 44.9961 32.6953 49.4258 32.6953 50.2695C32.6953 51.0078 33.2227 51.8516 34.5938 51.5352C45.1406 48.0547 52.3125 38.0352 52.3125 26.3281C52.3125 11.7734 40.3945 0.59375 25.7344 0.59375ZM10.2305 36.9805C10.0195 37.0859 10.125 37.4023 10.2305 37.6133C10.4414 37.7188 10.6523 37.8242 10.8633 37.7188C10.9688 37.6133 10.9688 37.2969 10.7578 37.0859C10.5469 36.9805 10.3359 36.875 10.2305 36.9805ZM9.07031 36.1367C8.96484 36.3477 9.07031 36.4531 9.28125 36.5586C9.49219 36.6641 9.70312 36.6641 9.80859 36.4531C9.80859 36.3477 9.70312 36.2422 9.49219 36.1367C9.28125 36.0312 9.17578 36.0312 9.07031 36.1367ZM12.4453 39.9336C12.3398 40.0391 12.3398 40.3555 12.6562 40.5664C12.8672 40.7773 13.1836 40.8828 13.2891 40.6719C13.3945 40.5664 13.3945 40.25 13.1836 40.0391C12.9727 39.8281 12.6562 39.7227 12.4453 39.9336ZM11.2852 38.3516C11.0742 38.457 11.0742 38.7734 11.2852 38.9844C11.4961 39.1953 11.707 39.3008 11.918 39.1953C12.0234 39.0898 12.0234 38.7734 11.918 38.5625C11.707 38.3516 11.4961 38.2461 11.2852 38.3516Z"
            ></path>
          </svg>