<svg
            class="w-10 h-10"
            viewBox="0 0 54 45"
            xmlns="http://www.w3.org/2000/svg"
          >
            <path
              d="M48.4102 11.7812C50.5195 10.1992 52.418 8.30078 53.8945 6.08594C51.9961 6.92969 49.7812 7.5625 47.5664 7.77344C49.8867 6.40234 51.5742 4.29297 52.418 1.65625C50.3086 2.92188 47.8828 3.87109 45.457 4.39844C43.3477 2.18359 40.5 0.917969 37.3359 0.917969C31.2188 0.917969 26.2617 5.875 26.2617 11.9922C26.2617 12.8359 26.3672 13.6797 26.5781 14.5234C17.4023 13.9961 9.17578 9.56641 3.69141 2.92188C2.74219 4.50391 2.21484 6.40234 2.21484 8.51172C2.21484 12.3086 4.11328 15.6836 7.17188 17.6875C5.37891 17.582 3.58594 17.1602 2.10938 16.3164V16.4219C2.10938 21.8008 5.90625 26.2305 10.9688 27.2852C10.125 27.4961 9.07031 27.707 8.12109 27.707C7.38281 27.707 6.75 27.6016 6.01172 27.4961C7.38281 31.9258 11.4961 35.0898 16.3477 35.1953C12.5508 38.1484 7.80469 39.9414 2.63672 39.9414C1.6875 39.9414 0.84375 39.8359 0 39.7305C4.85156 42.8945 10.6523 44.6875 16.9805 44.6875C37.3359 44.6875 48.4102 27.918 48.4102 13.2578C48.4102 12.7305 48.4102 12.3086 48.4102 11.7812Z"
            ></path>
          </svg>